<!--?xml version="1.0" encoding="utf-8"?-->
<!-- Generator: Adobe Illustrator 18.1.1, SVG Export Plug-In . SVG Version: 6.00 Build 0)  -->

<svg version="1.1" id="_x31_0" xmlns="http://www.w3.org/2000/svg" xmlns:xlink="http://www.w3.org/1999/xlink" x="0px" y="0px" viewBox="0 0 512 512" style="width: 512px; height: 512px; opacity: 1;" xml:space="preserve">
<style type="text/css">
	.st0{fill:#374149;}
</style>
<g>
	<path class="st0" d="M497.776,253.094c-4.374-48.922-16.679-92.133-36.519-128.359c-17.234-31.426-40.114-57.73-68.047-78.195
		C334.269,3.359,273.304,0,256.003,0C238.706,0,177.741,3.359,118.8,46.539c-27.934,20.465-50.844,46.77-68.047,78.195
		c-19.84,36.226-32.145,79.438-36.519,128.359c-5.973,66.742,11.683,123.172,52.449,167.754
		c29.469,32.21,65.859,52.675,99.508,65.304v3.817c0,12.176,40.207,22.031,89.813,22.031c49.609,0,89.816-9.855,89.816-22.031
		v-3.817c33.649-12.629,70.039-33.094,99.508-65.304C486.093,376.266,503.714,319.836,497.776,253.094z M456.991,356.121
		c-0.996,2.246-2.031,4.458-3.106,6.63c-0.254,0.507-0.523,0.996-0.781,1.5c-0.946,1.859-1.902,3.702-2.902,5.507
		c-0.512,0.914-1.047,1.797-1.57,2.699c-0.794,1.367-1.578,2.746-2.402,4.082c-0.958,1.546-1.95,3.046-2.942,4.546
		c-0.438,0.665-0.855,1.348-1.305,2c-6.011,8.825-12.637,16.813-19.621,24.039c-0.52,0.531-1.055,1.039-1.574,1.566
		c-1.203,1.215-2.402,2.43-3.625,3.602c-21.458,20.527-46.738,35.324-71.344,45.66c-36.094,15.211-70.785,20.79-89.816,20.79
		c-19.024,0-53.719-5.578-89.813-20.79c-24.606-10.336-49.886-25.133-71.344-45.66c-1.222-1.172-2.422-2.386-3.625-3.602
		c-0.519-0.527-1.054-1.035-1.57-1.566c-6.988-7.226-13.613-15.214-19.625-24.039c-0.446-0.652-0.867-1.335-1.305-2
		c-0.992-1.5-1.984-3-2.942-4.546c-0.824-1.336-1.609-2.715-2.402-4.082c-0.523-0.902-1.058-1.785-1.57-2.699
		c-1-1.805-1.957-3.648-2.902-5.507c-0.258-0.504-0.528-0.993-0.782-1.5c-1.074-2.172-2.11-4.383-3.106-6.63
		c-0.094-0.206-0.187-0.406-0.281-0.613c-12.047-27.414-18.032-60.45-14.493-100.094C49.44,152.652,93.703,94.562,141.492,62.562
		c0.469-0.312,0.934-0.66,1.402-0.965c0.512-0.336,1.027-0.633,1.539-0.965c40.453-25.782,81.414-32.418,100.602-34.106
		c3.953-0.285,7.633-0.418,10.969-0.418c3.335,0,7.015,0.133,10.969,0.418c19.195,1.688,60.187,8.332,100.66,34.141
		c0.488,0.316,0.98,0.598,1.469,0.918c0.511,0.332,1.019,0.715,1.527,1.051c47.75,32.015,91.945,90.094,101.137,192.778
		c3.539,39.644-2.45,72.679-14.493,100.094C457.183,355.715,457.081,355.914,456.991,356.121z" style="fill: rgb(75, 75, 75);"></path>
	<path class="st0" d="M364.195,83.906c-10.149-3.262-20.137-4.894-29.699-4.894c0,0,0,0-0.031,0c-22,0-38.641,8.519-51.992,15.371
		c-10.149,5.222-18.176,9.335-26.469,9.335c-8.29,0-16.317-4.113-26.465-9.335c-13.348-6.852-29.997-15.371-52.024-15.371
		c-9.562,0-19.55,1.633-29.699,4.894c-34.465,11-60.41,60.477-67.523,75.359c-9.172,19.254-29.438,68.473-19.125,110.313
		c19.418,78.523,74.277,86.714,194.836,86.714c120.562,0,175.422-8.191,194.839-86.714c10.317-41.84-9.953-91.059-19.125-110.313
		C424.573,144.383,398.659,94.906,364.195,83.906z M359.039,191.934c0,16.32-13.317,29.637-29.633,29.637
		c-16.352,0-29.637-13.317-29.637-29.637c0-1.988,0.199-3.95,0.554-5.84c2.742-13.546,14.722-23.793,29.082-23.793
		c6.949,0,13.378,2.414,18.437,6.461C354.667,174.18,359.039,182.566,359.039,191.934z M157.71,175.957
		c0.36-0.562,0.734-1.113,1.133-1.652c1.016-1.371,2.149-2.645,3.383-3.821c0.48-0.461,0.973-0.902,1.488-1.332
		c0.657-0.55,1.313-1.105,2.02-1.598c4.797-3.297,10.605-5.254,16.871-5.254c14.328,0,26.339,10.215,29.046,23.758
		c0.39,1.894,0.59,3.887,0.59,5.875c0,16.32-13.285,29.637-29.636,29.637c-16.352,0-29.633-13.317-29.633-29.637
		c0-0.902,0.086-1.785,0.167-2.668c0.059-0.672,0.137-1.336,0.242-2c0.27-1.687,0.688-3.328,1.23-4.91
		c0.23-0.672,0.477-1.336,0.754-1.988C156.027,178.824,156.811,177.351,157.71,175.957z M149.062,150.82c0,0,0,0.028,0.027,0.059
		c1.598,2.316,2.938,3.98,4.438,5.71c0.679,0.77,1.355,1.516,2.094,2.258c0.008,0.011,0.016,0.019,0.027,0.027
		c-9.594,7.832-15.73,19.742-15.73,33.058c0,4.59,0.789,9.019,2.141,13.168c0.054,0.191,0.074,0.382,0.133,0.578
		c-0.687,0.098-1.43,0.222-2.242,0.386c-1.726,0.359-3.718,0.75-5.875,1.176c-2.086,0.422-4.242,0.914-6.266,1.141l-1.434,0.133
		l-0.718,0.062l-0.359,0.035h-0.164c0,0.031,0.164,0.062,0.293,0.098h-0.16c-0.719-0.066-1.438-0.133-2.157-0.195
		c-0.293-0.035-0.621,0-0.976,0.031c-0.817-0.031-1.602-0.133-2.317-0.23c-0.656-0.098-1.309-0.227-1.828-0.391
		c-1.11-0.226-1.961-0.586-2.481-0.816c-0.23-0.062-0.457-0.164-0.554-0.129c-0.066,0-0.066,0.098-0.098,0.129
		c0,0.035,0,0.098,0.031,0.164c-1.11-3.558-4.699-5.809-8.453-5.125c-4.016,0.75-6.657,4.636-5.906,8.617
		c0,0,0.098,0.488,0.258,1.402c0.164,0.687,0.359,1.535,0.719,2.614c0.687,2.054,2.058,4.73,4.343,7.374
		c1.172,1.305,2.512,2.512,4.012,3.719c1.535,1.144,3.168,2.121,4.961,3.07c0.981,0.457,1.992,0.914,3.066,1.336
		c0.656,0.262,1.34,0.554,2.023,0.816c1.078,0.293,2.157,0.59,3.266,0.914c0.981,0.293,1.926,0.39,2.938,0.59
		c1.958,0.293,3.883,0.519,5.742,0.586c1.863,0.13,3.656,0.098,5.355-0.031c3.426-0.23,6.462-0.816,9.004-1.535
		c2.547-0.75,4.57-1.566,6.008-2.254c0.718-0.359,1.238-0.652,1.73-0.879c0.52-0.262,0.618-0.359,0.618-0.359l1.406-1.305
		c0.325-0.293,0.622-0.59,0.879-0.914c7.149,5.48,16.09,8.714,25.75,8.714c23.531,0,42.687-19.16,42.687-42.691
		c0-2.902-0.293-5.778-0.879-8.516c6.527-3.59,11.129-10.347,11.586-18.308c0.718-12.305-8.684-22.879-20.985-23.633
		c-0.328,0.133-5.515,0.461-12.793-0.325c-4.047-0.426-8.683-1.206-13.25-2.511c-4.57-1.34-8.977-3.234-12.5-5.649
		c-0.883-0.586-1.798-1.336-2.286-1.633c-0.195,0-0.882-0.812-1.402-1.402l-0.426-0.457l-0.195-0.195
		c0,0.031,0.031,0.066,0.066,0.133l-0.558-0.621c-1.696-1.798-3.133-3.786-4.469-5.844c-2.645-4.078-4.504-8.516-5.746-12.5
		c-1.141-3.719-1.793-7.047-2.152-9.496c6.594-1.664,12.598-2.383,18.21-2.383c33.027,0,51.141,24.707,78.489,24.707
		c27.351,0,45.43-24.707,78.492-24.707c6.461,0,13.543,0.946,21.343,3.23c-0.39,2.352-1.011,5.356-2.023,8.649
		c-1.238,3.984-3.102,8.422-5.742,12.5c-1.339,2.058-2.773,4.046-4.472,5.844l-0.555,0.621c0.031-0.066,0.066-0.102,0.066-0.133
		l-0.195,0.195l-0.426,0.457c-0.523,0.59-1.207,1.402-1.402,1.402c-0.492,0.297-1.406,1.047-2.285,1.633
		c-3.524,2.414-7.93,4.309-12.5,5.649c-4.57,1.305-9.203,2.086-13.25,2.511c-7.278,0.786-12.5,0.458-12.828,0.325
		c-12.301,0.754-21.668,11.328-20.95,23.633c0.391,6.754,3.75,12.629,8.711,16.445c-0.813,3.329-1.274,6.79-1.274,10.379
		c0,23.531,19.16,42.691,42.692,42.691c9.66,0,18.601-3.234,25.75-8.714c0.262,0.324,0.554,0.621,0.879,0.914l1.406,1.305
		c0,0,0.098,0.098,0.618,0.359c0.492,0.227,1.012,0.52,1.73,0.879c1.438,0.687,3.461,1.504,6.004,2.254
		c2.546,0.719,5.582,1.305,9.008,1.535c1.699,0.129,3.492,0.161,5.355,0.031c1.859-0.066,3.785-0.293,5.742-0.586
		c0.98-0.199,1.957-0.297,2.938-0.59c1.109-0.325,2.187-0.622,3.262-0.914c0.687-0.262,1.371-0.554,2.023-0.816
		c1.078-0.422,2.09-0.879,3.07-1.336c1.793-0.95,3.426-1.926,4.961-3.07c1.5-1.207,2.84-2.414,4.016-3.719
		c2.281-2.644,3.652-5.32,4.339-7.374c0.36-1.078,0.555-1.926,0.684-2.614c0.195-0.914,0.262-1.402,0.262-1.402
		c0.786-3.981-1.859-7.867-5.875-8.617c-2.734-0.497-5.351,0.586-7.019,2.57c-0.699,0.684-1.344,1.45-1.883,2.344
		c-0.078,0.027-0.109,0.023-0.202,0.047c-0.489,0.23-1.336,0.59-2.446,0.816c-0.523,0.164-1.176,0.293-1.863,0.391
		c-0.684,0.098-1.469,0.199-2.317,0.23c-0.328-0.031-0.652-0.066-0.945-0.031c-0.719,0.062-1.438,0.129-2.188,0.195h-0.133
		c0.133-0.066,0.297-0.098,0.297-0.098h-0.195l-0.328-0.035l-0.718-0.062l-1.469-0.133c-1.989-0.227-4.145-0.719-6.234-1.141
		c-2.153-0.426-4.141-0.817-5.871-1.176c-0.754-0.152-1.461-0.266-2.082-0.359c-0.054-0.02-0.113-0.024-0.168-0.043
		c1.465-4.305,2.282-8.938,2.282-13.73c0-12.5-5.387-23.726-13.969-31.527c1.238-1.207,2.449-2.481,3.621-3.817
		c1.504-1.73,2.84-3.394,4.442-5.71c0.848-1.11,1.11-1.664,1.469-2.317c0.226,0.16,0.488,0.324,0.782,0.488
		c0.554,0.391,1.206,0.817,1.992,1.336c0.718,0.458,1.469,1.012,2.187,1.535c0.684,0.555,1.371,1.11,1.824,1.602
		c0.524,0.52,0.817,0.977,1.047,1.305c0.129,0.098,0.098,0.293,0.226,0.359c-0.031-0.035-0.062-0.066-0.062-0.133
		c-0.035-0.062-0.035-0.098-0.035-0.164c0-0.098,0.035-0.16,0.164,0.133l0.387,0.891l0.105,0.414l0.34,0.375
		c0.027,0.066,0.082,0.074,0.082,0.18c0.098,0.293,0.293,0.621,0.328,1.109c0.098,0.391,0.16,0.914,0.195,1.5
		c0.098,0.555,0.062,1.145,0.062,1.797c0.035,0.622-0.031,1.305-0.098,1.993c-0.031,1.367-0.226,2.773-0.39,4.175
		c-0.164,1.402-0.39,2.809-0.586,4.114c-0.39,2.742-0.75,5.023-0.98,6.656c-0.129,0.817-0.195,1.535-0.226,1.961
		c-0.035,0.422-0.066,0.684-0.066,0.684c-0.098,0.652-0.066,1.371,0.164,2.023c0.75,2.188,3.133,3.328,5.32,2.578l0.355-0.129
		c0,0,0.231-0.066,0.719-0.36c0.457-0.297,1.145-0.621,1.957-1.144c1.602-1.012,3.79-2.61,6.106-4.863
		c2.317-2.282,4.797-5.219,6.918-9.106c1.011-1.957,2.023-4.11,2.675-6.656l0.524-1.895l0.293-2.086
		c0.226-1.371,0.328-2.906,0.226-4.504c0.035-1.504-0.324-3.23-0.618-4.863l-0.133-0.621l-0.062-0.329l-0.035-0.062l-0.324-0.914
		l-0.035-0.098l-0.226-0.653l-0.457-1.308c-0.031-0.13-0.262-0.586-0.489-1.074c-0.23-0.458-0.492-0.883-0.718-1.34
		c-0.523-0.848-1.078-1.793-1.602-2.512c-1.012-1.242-2.023-2.578-3.23-3.558c-1.141-1.043-2.348-1.992-3.555-2.676
		c-1.21-0.785-2.418-1.339-3.625-1.828c-2.347-0.98-4.57-1.434-6.558-1.695c-1.274-0.133-2.45-0.164-3.523-0.133
		c1.305-4.66,1.93-8.996,2.316-13.031c0.125-0.988,0.297-1.918,0.406-2.942c32.707,30.43,65.313,104.426,54.094,149.782
		c-15.043,60.969-50.977,71.836-175.812,71.836c-124.832,0-160.766-10.867-175.813-71.836
		c-11.582-46.863,23.566-124.246,57.313-152.641c0,0.656,0.031,1.309,0.062,1.961c0.328,5.84,1.273,12.824,3.691,20.137
		c0.129,0.359,0.258,0.75,0.39,1.11c-2.058-0.458-4.766-0.786-8.191-0.426c-1.992,0.262-4.18,0.718-6.562,1.73
		c-1.172,0.457-2.383,1.011-3.59,1.828c-1.238,0.683-2.414,1.633-3.555,2.676c-1.207,0.98-2.218,2.285-3.23,3.558
		c-0.554,0.714-1.11,1.629-1.602,2.511c-0.226,0.426-0.488,0.883-0.718,1.34c-0.226,0.457-0.458,0.946-0.489,1.074l-0.683,1.961
		l-0.035,0.062l-0.324,0.95l-0.035,0.062l-0.062,0.293l-0.133,0.621c-0.294,1.665-0.653,3.364-0.622,4.895
		c-0.098,1.57,0,3.102,0.23,4.472l0.293,2.09l0.524,1.89c0.652,2.547,1.664,4.703,2.676,6.66c2.121,3.883,4.601,6.852,6.886,9.106
		c2.347,2.286,4.504,3.852,6.133,4.894c0.816,0.524,1.504,0.848,1.961,1.145c0.488,0.258,0.719,0.324,0.719,0.324l0.39,0.129
		c0.621,0.23,1.305,0.297,1.992,0.199c2.282-0.359,3.817-2.48,3.457-4.766c0,0-0.031-0.293-0.066-0.718
		c-0.031-0.426-0.098-1.145-0.226-1.957c-0.262-1.602-0.586-3.883-0.98-6.661c-0.196-1.304-0.422-2.675-0.586-4.078
		c-0.164-1.402-0.359-2.84-0.39-4.211c-0.066-0.652-0.133-1.336-0.098-1.957c0-0.653-0.035-1.274,0.062-1.828
		c0.035-0.586,0.098-1.078,0.195-1.5c0.035-0.493,0.23-0.817,0.297-1.11c0.031-0.328,0.195-0.394,0.293-0.554
		c-0.035,0.098-0.066,0.226-0.098,0.355l0.195-0.39l0.555-1.238c0.129-0.328,0.164-0.23,0.164-0.164c0,0.066,0,0.129-0.035,0.164
		c0,0.031-0.031,0.098-0.031,0.129c0.066-0.098,0.066-0.226,0.195-0.359c0.195-0.325,0.523-0.75,1.012-1.274
		c0.492-0.52,1.175-1.043,1.859-1.629c0.718-0.492,1.469-1.047,2.187-1.535c0.786-0.489,1.438-0.946,1.992-1.305
		c0.586-0.359,1.043-0.687,1.336-0.914c0.215-0.129,0.27-0.222,0.29-0.285l0.214-0.09c1.278,0.054,2.52-0.211,3.598-0.782
		C149.027,150.824,149.042,150.824,149.062,150.82z" style="fill: rgb(75, 75, 75);"></path>
	<path class="st0" d="M235.769,221.668c1.73,0.39,3.133,0.683,3.984,1.141c0.879,0.426,0.782,1.011,0.977,0.554
		c0,0,0.035-0.488,1.046-1.176c0.946-0.652,2.871-1.273,4.926-1.238c2.058-0.035,4.113,0.683,5.254,1.531
		c1.176,0.882,1.438,1.797,1.438,1.797c0.098,0.293,0.586,0.621,1.305,0.847c0.457,0.133,0.914,0.133,1.305-0.031
		c0.359,0.164,0.851,0.164,1.273,0.031c0.75-0.226,1.242-0.554,1.34-0.847c0,0,0.262-0.914,1.434-1.797
		c1.145-0.848,3.199-1.566,5.258-1.531c2.055-0.035,3.981,0.586,4.926,1.238c0.98,0.688,1.046,1.176,1.046,1.176
		c0.195,0.457,0.098-0.129,0.977-0.554c0.816-0.458,2.254-0.75,3.984-1.141c1.891-0.457,3.883-1.211,4.958-2.938
		c1.046-1.668,1.015-4.211-0.977-6.203c-0.687-0.683-1.469-1.176-2.254-1.469c0,0-2.379-0.98-5.481-0.98
		c-3.102-0.031-6.789,0.851-9.855,2.613c-2.871,1.586-5.145,3.973-6.348,6.356c-0.09,0.148-0.238,0.277-0.324,0.426
		c-1.125-2.523-3.543-5.102-6.582-6.782c-3.066-1.762-6.754-2.644-9.855-2.613c-3.098,0-5.516,0.98-5.516,0.98
		c-0.75,0.293-1.531,0.786-2.218,1.469c-1.988,1.992-2.023,4.535-0.981,6.203C231.886,220.457,233.847,221.211,235.769,221.668z" style="fill: rgb(75, 75, 75);"></path>
	<path class="st0" d="M329.112,270.39l0.098,0.102c0,0,0.422,0.258,1.238,0.715c0.914,0.554,1.992,1.207,3.492,2.023
		c2.938,1.668,7.114,3.886,12.305,6.332c2.578,1.242,5.418,2.481,8.485,3.786c3.07,1.242,6.363,2.515,9.89,3.691
		c7.082,2.281,14.981,4.402,24.215,4.664c2.254,0.133,4.863-0.195,7.214-0.359c1.207-0.164,2.543-0.52,3.817-0.817l1.894-0.457
		l0.945-0.258h0.066l1.074-0.36h0.066c0.031-0.035,0.098-0.035,0.098-0.035h-0.098l0.164-0.062l0.262-0.164l2.317-1.109l0.586-0.262
		c0.196-0.098,0.329-0.164,0.75-0.39l1.992-1.242c1.305-0.816,2.645-1.695,3.722-2.609c0.946-0.914,1.86-1.86,2.738-2.809
		c0.914-0.879,1.602-1.926,2.254-2.969c0.652-1.012,1.402-2.023,1.89-3.035c0.95-2.09,1.894-4.114,2.351-6.07
		c1.207-3.949,1.438-7.473,1.598-10.672c0.066-3.164-0.13-5.973-0.422-8.386c-0.328-2.418-0.687-4.473-1.078-6.168
		c-0.36-1.664-0.719-2.973-0.981-3.918c-0.293-0.98-0.422-1.5-0.422-1.5c-0.981-3.266-4.114-5.55-7.637-5.289
		c-4.047,0.328-7.082,3.852-6.758,7.934l0.066,0.848c0,0,0.031,0.324,0.066,0.914c0.063,0.684,0.13,1.726,0.161,3.066
		c0.035,1.336,0,2.969-0.129,4.797c-0.13,1.829-0.391,3.821-0.817,5.844c-0.523,1.988-1.11,4.11-2.09,5.742
		c-0.391,0.945-1.043,1.535-1.5,2.285c-0.262,0.359-0.622,0.524-0.879,0.817c-0.297,0.262-0.554,0.554-0.914,0.683
		c-0.328,0.164-0.621,0.328-0.914,0.555c-0.23,0.066-0.359-0.031-0.492,0.035c-0.062,0.031-0.098,0.062-0.164,0.098
		c0,0.031-0.227,0.098-0.391,0.129l-0.617,0.164l-1.856,0.515l-0.542,0.102h-0.024l0.364-0.129l-0.325-0.031l-0.656-0.031
		c-0.422-0.035-0.782,0.031-1.27-0.035c-1.11-0.262-2.023-0.226-3.23-0.586c-4.668-1.078-10.086-3.524-15.016-6.301
		c-2.48-1.402-4.863-2.902-7.113-4.371c-2.254-1.5-4.375-2.938-6.301-4.375c-3.817-2.84-6.95-5.351-9.039-7.113
		c-1.043-0.883-1.89-1.634-2.316-2.024c-0.524-0.457-0.817-0.718-0.817-0.718c-0.816-0.75-1.797-1.469-2.774-2.055
		c-8.519-5.156-19.617-2.418-24.738,6.133C317.819,254.172,320.562,265.27,329.112,270.39z" style="fill: rgb(75, 75, 75);"></path>
	<path class="st0" d="M90.374,238.05c0,0-0.16,0.52-0.488,1.5c-0.262,0.914-0.687,2.219-1.078,3.918
		c-0.39,1.664-0.781,3.75-1.14,6.168c-0.329,2.414-0.524,5.222-0.524,8.418c0.195,3.199,0.426,6.758,1.664,10.738
		c0.458,1.958,1.469,4.016,2.45,6.07c0.488,1.043,1.238,2.023,1.926,3.035c0.684,1.047,1.371,2.054,2.317,2.969
		c0.882,0.914,1.793,1.863,2.742,2.742c1.11,0.914,2.481,1.797,3.786,2.613l2.023,1.172c0.39,0.23,0.555,0.262,0.75,0.359
		l0.554,0.262l2.351,1.046l0.294,0.129l0.164,0.066l0.066,0.031l1.109,0.36l0.946,0.226l1.89,0.426
		c1.274,0.262,2.578,0.586,3.821,0.718c2.351,0.13,4.894,0.36,7.113,0.161c9.141-0.555,16.84-2.934,23.664-5.578
		c3.426-1.34,6.528-2.871,9.466-4.309c2.87-1.5,5.546-3.004,7.961-4.438c4.766-2.938,8.55-5.613,11.129-7.605
		c1.34-1.043,2.285-1.829,3.035-2.45c0.687-0.586,1.046-0.91,1.046-0.91c4.402-3.754,5.645-10.25,2.641-15.473
		c-3.394-5.874-10.898-7.898-16.774-4.503l-0.39,0.23c0,0-1.371,0.781-3.754,2.183c-2.45,1.406-5.973,3.461-10.215,5.813
		c-2.09,1.238-4.406,2.414-6.789,3.718c-2.414,1.274-4.992,2.516-7.57,3.754c-5.191,2.382-10.805,4.602-15.602,5.386
		c-1.207,0.293-2.156,0.16-3.266,0.39c-0.519,0.031-0.879-0.066-1.336-0.066h-0.981h-0.066l-1.957-0.586l-0.621-0.164
		c-0.16-0.066-0.391-0.129-0.391-0.164c-0.031-0.066-0.062-0.098-0.129-0.129c-0.098-0.098-0.23,0-0.457-0.098
		c-0.262-0.199-0.554-0.394-0.882-0.59c-0.36-0.098-0.586-0.422-0.848-0.683c-0.262-0.294-0.586-0.489-0.817-0.848
		c-0.457-0.718-1.078-1.309-1.437-2.254c-0.977-1.598-1.531-3.719-2.055-5.68c-0.457-1.988-0.75-3.98-0.914-5.809
		c-0.129-1.793-0.164-3.426-0.164-4.766c0-1.336,0-2.382,0.035-3.066c0.031-0.328,0.031-0.586,0.031-0.75c0-0.133,0-0.195,0-0.195
		v-1.371c-0.066-3.035-2.024-5.875-5.09-6.855C95.761,232.078,91.616,234.199,90.374,238.05z" style="fill: rgb(75, 75, 75);"></path>
	<path class="st0" d="M218.214,268.141c2.805,0.882,5.774-0.688,6.657-3.492h0.031c0,0,0.39-1.305,1.469-3.199
		c0.554-1.141,1.242-1.696,2.09-2.645c0.75-0.946,2.09-1.762,3.558-2.61c1.367-0.945,3.262-1.402,5.058-2.054
		c0.946-0.297,1.958-0.426,2.969-0.622c1.012-0.164,2.024-0.39,3.133-0.39c2.153-0.164,4.34-0.262,6.559-0.23
		c2.058-0.129,4.179,0.066,6.266-0.031c2.09,0.098,4.179-0.098,6.234,0.031c2.254-0.031,4.441,0.066,6.594,0.23
		c1.109,0,2.121,0.226,3.133,0.39c1.011,0.196,2.023,0.325,2.969,0.622c1.797,0.652,3.687,1.11,5.058,2.054
		c1.469,0.848,2.809,1.664,3.558,2.61c0.848,0.949,1.535,1.504,2.09,2.645c1.074,1.894,1.469,3.199,1.469,3.199
		c0.715,2.285,2.84,3.754,5.09,3.754c0.523,0,1.078-0.098,1.602-0.262c2.805-0.883,4.339-3.883,3.457-6.691
		c-0.426-1.402-1.434-2.512-2.676-3.133c0,0-1.207-0.622-2.906-1.989c-0.714-0.656-2.218-1.633-3.652-2.645
		c-1.406-1.175-3.035-2.023-4.734-3.133c-1.629-1.206-3.652-1.992-5.645-3.23c-2.09-0.914-4.242-2.125-6.625-3.003
		c-1.207-0.426-2.414-0.883-3.625-1.305c-1.238-0.426-2.543-0.653-3.852-1.012c-2.281-0.554-4.664-0.718-7.015-0.851v-0.063
		c-0.031,0-0.062,0-0.062,0c-0.164,0.031-0.297,0.031-0.461,0.031c-0.161,0-0.294,0-0.454-0.031c-0.035,0-0.035,0-0.066,0v0.063
		c-2.382,0.133-4.734,0.297-7.019,0.851c-1.305,0.359-2.61,0.586-3.848,1.012c-1.207,0.422-2.449,0.878-3.625,1.305
		c-2.383,0.878-4.535,2.09-6.625,3.003c-1.989,1.238-4.012,2.024-5.645,3.23c-1.699,1.11-3.328,1.958-4.766,3.133
		c-1.402,1.012-2.906,1.989-3.621,2.645c-1.73,1.367-2.906,1.989-2.906,1.989c-1.238,0.621-2.254,1.73-2.676,3.133
		C213.871,264.258,215.406,267.258,218.214,268.141z" style="fill: rgb(75, 75, 75);"></path>
	<path class="st0" d="M254.241,277.508c-3.687,0.914-5.808,4.766-5.222,8.515l5.289,33.782c0.098,0.683,0.653,1.274,1.402,1.402
		c0.914,0.129,1.797-0.489,1.926-1.402l5.386-34.27c0.098-0.718,0.098-1.469,0-2.218
		C262.371,279.203,258.355,276.496,254.241,277.508z" style="fill: rgb(75, 75, 75);"></path>
	<path class="st0" d="M204.171,312.711c0,0,0.003,0.007,0.007,0.011c0.426,0.684,1.207,1.012,1.86,0.75c0,0,7.05-2.614,13.542-7.149
		c3.234-2.218,6.301-4.894,8.422-7.113c2.187-2.219,3.461-3.95,3.461-3.95c0.422-0.554,0.812-1.207,1.011-1.926
		c0.653-1.957,0.196-4.047-0.98-5.582c-0.813-1.137-2.031-1.843-3.398-2.226v-0.004l-0.004,0.004
		c-0.554-0.156-1.129-0.27-1.722-0.316c-3.719-0.36-6.528,1.011-7.309,3.554c0,0-0.426,1.469-1.371,3.656
		c-0.914,2.188-2.45,5.09-4.309,7.867c-3.785,5.578-9.106,10.344-9.106,10.344c-0.426,0.39-0.554,1.141-0.262,1.828
		C204.046,312.554,204.108,312.645,204.171,312.711z" style="fill: rgb(75, 75, 75);"></path>
	<path class="st0" d="M292.819,288.473c-0.133-0.489-0.39-0.946-0.718-1.371c-0.914-1.11-2.383-1.695-4.145-1.89
		c-1.242-0.066-2.61-0.066-3.981,0.359h-0.035c-0.554,0.129-1.109,0.324-1.629,0.617c-3.363,1.829-3.851,6.594-1.469,9.5
		c0,0,1.27,1.664,3.395,3.848c2.152,2.156,5.156,4.766,8.351,6.984c6.43,4.442,13.383,6.985,13.383,6.985
		c0.586,0.262,1.273,0.035,1.73-0.554c0.062-0.066,0.129-0.161,0.129-0.262c0.457-0.683,0.39-1.531-0.098-1.988
		c0,0-5.418-4.863-9.203-10.512c-1.926-2.836-3.461-5.773-4.375-8.027C293.21,289.942,292.819,288.473,292.819,288.473z" style="fill: rgb(75, 75, 75);"></path>
	<path class="st0" d="M172.815,300.778c-0.457,0.39-0.554,1.109-0.262,1.793c0.031,0.102,0.098,0.195,0.129,0.262l0.004,0.004
		l-0.008,0.012c0.004-0.004,0.008-0.004,0.012-0.008c0.426,0.714,1.203,1.035,1.855,0.742c0,0,7.047-2.578,13.543-7.114
		c3.262-2.25,6.297-4.93,8.453-7.149c2.153-2.218,3.426-3.914,3.426-3.914c0.457-0.555,0.816-1.242,1.042-1.961
		c0.622-1.958,0.199-4.047-0.976-5.547c-0.848-1.141-2.055-1.859-3.43-2.25c-0.555-0.165-1.141-0.262-1.727-0.298
		c-3.722-0.359-6.496,1.012-7.312,3.559c0,0-0.391,1.469-1.336,3.656c-0.95,2.187-2.45,5.09-4.344,7.863
		C178.136,295.981,172.815,300.778,172.815,300.778z" style="fill: rgb(75, 75, 75);"></path>
	<path class="st0" d="M315.73,289.617c2.121,2.184,5.156,4.798,8.355,7.016c6.43,4.406,13.379,6.984,13.379,6.984
		c0.554,0.227,1.274,0.032,1.73-0.554c0.066-0.066,0.098-0.164,0.133-0.262c0.422-0.687,0.355-1.535-0.133-2.023
		c0,0-5.418-4.832-9.203-10.508c-1.926-2.809-3.426-5.778-4.34-7.996c-0.946-2.219-1.34-3.688-1.34-3.688
		c-0.16-0.492-0.39-0.98-0.714-1.37c-0.914-1.11-2.418-1.699-4.149-1.895c-1.207-0.066-2.61-0.066-3.98,0.329h-0.031
		c-0.59,0.129-1.145,0.359-1.665,0.652c-3.332,1.828-3.851,6.59-1.468,9.496C312.304,285.797,313.577,287.461,315.73,289.617z" style="fill: rgb(75, 75, 75);"></path>
	<path class="st0" d="M182.605,212.789c11.523,0,20.89-9.336,20.89-20.855c0-2.84-0.558-5.547-1.602-7.996
		c-3.133-7.57-10.606-12.89-19.289-12.89c-3,0-5.875,0.652-8.485,1.828c-3.25,1.434-6.035,3.718-8.137,6.527
		c-0.55,0.672-1.094,1.355-1.566,2.078c0.07-0.035,0.156-0.051,0.226-0.082c-0.046,0.078-0.109,0.145-0.152,0.222
		c1.566-0.816,3.43-1.273,5.453-1.273c5.481,0,9.954,3.394,9.954,7.605c0,4.211-4.473,7.606-9.954,7.606
		c-2.722,0-5.16-0.867-6.976-2.226c-0.391-0.336-0.79-0.672-1.09-1.074c0,0.055,0.016,0.106,0.02,0.157
		c-0.055-0.055-0.129-0.098-0.18-0.153C161.913,203.617,171.183,212.789,182.605,212.789z" style="fill: rgb(75, 75, 75);"></path>
	<path class="st0" d="M339.62,173.722c-3.035-1.695-6.527-2.675-10.214-2.675c-6.313,0-11.864,2.859-15.676,7.273
		c-0.91,0.997-1.828,1.997-2.547,3.161c0.078-0.039,0.172-0.055,0.25-0.09c-0.051,0.082-0.129,0.145-0.176,0.23
		c1.566-0.816,3.461-1.273,5.484-1.273c1.829,0,3.559,0.394,5.028,1.046c2.937,1.305,4.894,3.75,4.894,6.558
		c0,4.211-4.438,7.606-9.922,7.606c-2.746,0-5.191-0.867-6.988-2.226c-0.386-0.336-0.781-0.672-1.074-1.074
		c0,0.055,0.016,0.106,0.02,0.16c-0.055-0.058-0.129-0.098-0.18-0.156c0.195,11.355,9.43,20.527,20.887,20.527
		c11.519,0,20.886-9.336,20.886-20.855C350.292,184.102,345.983,177.282,339.62,173.722z" style="fill: rgb(75, 75, 75);"></path>
	<path class="st0" d="M194.811,443.332l-1.371-2.054c-0.195-0.23-0.324-0.524-0.554-0.914l-0.164-0.328
		c-0.519-1.012-1.566-3.23-2.543-6.492c-1.863-6.137-3.102-14.622-3.297-22.715l-0.035-3.199l0.066-3.133
		c0.066-2.058,0.195-4.046,0.391-6.004c0.125-1.457,0.328-2.914,0.55-4.351c0.078-0.504,0.156-0.992,0.242-1.492
		c0.25-1.418,0.519-2.825,0.84-4.145c0.718-3.035,1.566-4.992,1.828-5.547l0.23-0.457c0.094-0.23,0.195-0.426,0.39-0.718
		l0.262-0.458c0.489-0.816,0.91-1.73,1.207-2.578c1.172-3.493,0.946-7.215-0.687-10.543c-1.633-3.297-4.438-5.742-7.93-6.953
		c-1.438-0.489-2.906-0.715-4.438-0.715c-5.875,0-11.129,3.816-13.055,9.465l-0.359,1.043c-0.293,0.816-0.621,1.957-1.012,3.426
		c-0.75,3.168-1.242,6.922-1.402,10.61c-0.196,4.305-0.066,9.007,0.359,13.542c0.226,2.414,0.554,4.863,0.945,7.344l0.653,3.817
		l0.718,3.527c2.09,9.594,5.418,19.156,9.106,26.172c0.848,1.602,1.762,3.168,2.676,4.636c0.847,1.336,1.73,2.578,2.61,3.653
		c0.882,1.078,1.534,1.797,2.023,2.254c0.164,0.294,0.328,0.622,0.523,0.883c1.238,1.859,3.363,3,5.614,3
		c1.336,0,2.675-0.39,3.785-1.176c2.84-1.926,3.786-5.645,2.286-8.614C195.139,443.855,194.975,443.594,194.811,443.332z" style="fill: rgb(75, 75, 75);"></path>
	<path class="st0" d="M140.245,417.258c-0.164-0.195-0.262-0.426-0.426-0.718l-0.129-0.262c-0.426-0.817-1.274-2.578-2.023-5.192
		c-1.504-4.859-2.481-11.648-2.645-18.109l-0.035-2.578l0.066-2.484c0.066-1.63,0.164-3.262,0.293-4.798
		c0.328-3.492,0.883-6.266,1.305-7.996c0.558-2.316,1.211-3.816,1.602-4.664c0.098-0.23,0.195-0.394,0.359-0.652l0.195-0.359
		c0.426-0.688,0.75-1.406,0.981-2.09c1.988-5.843-1.145-12.175-6.953-14.164c-1.176-0.39-2.383-0.59-3.59-0.59
		c-4.766,0-9.007,3.039-10.606,7.672l-0.262,0.847c-0.262,0.653-0.492,1.535-0.816,2.742c-0.586,2.512-0.981,5.516-1.145,8.485
		c-0.16,3.461-0.062,7.214,0.328,10.867c0.164,1.926,0.426,3.886,0.75,5.91l0.492,3.035l0.586,2.805
		c1.665,7.703,4.34,15.371,7.313,20.985c1.27,2.449,2.774,4.832,4.242,6.66c0.714,0.878,1.27,1.469,1.629,1.859
		c0.133,0.226,0.23,0.426,0.394,0.652c1.012,1.535,2.738,2.45,4.602,2.45c1.11,0,2.184-0.328,3.098-0.946
		c1.242-0.851,2.058-2.09,2.352-3.558c0.293-1.469-0.035-2.938-0.848-4.18L140.245,417.258z" style="fill: rgb(75, 75, 75);"></path>
	<path class="st0" d="M346.605,374.438c-0.36-1.438-0.688-2.578-0.946-3.328l-0.394-1.078c-1.926-5.68-7.18-9.496-13.086-9.496
		c-1.5,0-2.969,0.226-4.438,0.715c-3.461,1.21-6.269,3.656-7.898,6.953c-1.633,3.328-1.863,7.05-0.687,10.543
		c0.293,0.847,0.718,1.762,1.207,2.609l0.359,0.59c0.098,0.129,0.164,0.324,0.328,0.617l0.129,0.262
		c0.328,0.688,1.176,2.645,1.894,5.68c0.317,1.309,0.586,2.707,0.833,4.113c0.094,0.528,0.175,1.039,0.254,1.566
		c0.218,1.43,0.422,2.879,0.546,4.34c0.196,1.926,0.325,3.914,0.391,5.938l0.066,3.039l-0.066,3.293
		c-0.164,8.129-1.402,16.614-3.297,22.782c-0.946,3.23-1.993,5.449-2.481,6.43l-0.262,0.426c-0.164,0.324-0.324,0.618-0.586,0.977
		l-1.274,1.926c-0.164,0.262-0.328,0.523-0.458,0.785c-1.5,2.969-0.554,6.688,2.286,8.614c1.11,0.786,2.414,1.176,3.785,1.176
		c2.254,0,4.375-1.141,5.614-3c0.195-0.262,0.359-0.59,0.523-0.883c0.458-0.457,1.141-1.175,2.024-2.285
		c0.878-1.078,1.762-2.286,2.609-3.622c0.914-1.437,1.828-3.003,2.645-4.601c3.718-7.051,7.05-16.614,9.137-26.242l0.75-3.622
		l0.622-3.722c0.39-2.446,0.718-4.894,0.949-7.309c0.422-4.535,0.555-9.238,0.356-13.542
		C347.878,381.39,347.355,377.637,346.605,374.438z" style="fill: rgb(75, 75, 75);"></path>
	<path class="st0" d="M394.417,363.832c-0.297-1.176-0.554-2.058-0.75-2.676l-0.36-1.015c-1.535-4.5-5.777-7.539-10.542-7.539
		c-1.207,0-2.414,0.199-3.59,0.59c-5.808,1.989-8.941,8.321-6.953,14.133c0.23,0.715,0.554,1.434,0.95,2.086l0.293,0.523
		c0.098,0.129,0.164,0.293,0.39,0.683c0.23,0.555,0.914,2.09,1.5,4.539c0.426,1.695,0.981,4.469,1.309,7.961
		c0.129,1.535,0.226,3.168,0.293,4.766l0.066,2.414l-0.066,2.645c-0.133,6.496-1.11,13.285-2.61,18.179
		c-0.785,2.578-1.602,4.34-1.992,5.09l-0.164,0.328c-0.164,0.293-0.293,0.523-0.523,0.847l-1.012,1.5
		c-1.695,2.547-1.043,6.008,1.504,7.738c0.914,0.618,1.988,0.946,3.098,0.946c1.863,0,3.558-0.914,4.606-2.45
		c0.129-0.226,0.258-0.426,0.39-0.652c0.359-0.39,0.879-0.946,1.633-1.89c1.465-1.797,2.969-4.18,4.207-6.594
		c3.004-5.648,5.679-13.316,7.344-21.05l0.59-2.906l0.519-2.969c0.293-1.957,0.555-3.918,0.719-5.843
		c0.359-3.653,0.488-7.406,0.293-10.832C395.429,369.379,395.035,366.375,394.417,363.832z" style="fill: rgb(75, 75, 75);"></path>
	<path class="st0" d="M258.784,409.574h24.961c6.879,0,8.879-1.282,8.879-8.321v-4.882c0-7.199-2.078-8.317-8.879-8.317h-24.961
		c-6.718,0-8.718,1.199-8.718,8.317v4.882C250.066,408.531,252.143,409.574,258.784,409.574z M281.347,397.973v1.519
		c0,0.961-0.562,1.52-1.602,1.52h-16.801c-1.199,0-1.598-0.559-1.598-1.52v-1.519c0-0.961,0.398-1.602,1.598-1.602h16.801
		C280.784,396.371,281.347,396.934,281.347,397.973z" style="fill: rgb(75, 75, 75);"></path>
	<path class="st0" d="M284.784,411.973h-27.039c-3.445,0-7.75,0.504-9.23,5.238c-0.226,0.621-0.402,1.324-0.531,2.106
		c-1.613-2.122-5.09-5.566-6.89-7.36l-0.191-0.706c2.496-4.024,6.523-10.406,6.523-17.438c0-1.199-0.242-4.398-2.481-5.84
		c-0.878-0.558-2.801-1.122-3.598-1.122h-17.441c-1.68,0-6,0.161-6,5.442c0,4.16,1.519,6.238,6,6.238h9.038
		c0.641,0,1.282,0.242,1.282,0.961c0,0.398-2.879,7.122-12.641,15.359c-2.558,1.922-4.16,3.36-4.16,6.161
		c0,3.441,2.641,6.878,6.16,6.878c1.719,0,2.992-0.699,3.875-1.308c0.195-0.102,0.426-0.199,0.606-0.294v19.363
		c0,1.762,0.078,6.082,5.758,6.082c4.801,0,6.481-1.762,6.481-6.082v-10.87l0.133-8.938c0.793,1.238,1.878,2.609,3.629,2.609
		c0.535,0,1.602-0.074,3.007-1.25c0.266-0.184,0.532-0.371,0.833-0.629v14.039c0,7.839,3.758,9.839,9.839,9.839h27.039
		c6,0,9.84-2,9.84-9.839v-18.879C294.624,414.054,290.944,411.973,284.784,411.973z M259.347,426.133v-3.762
		c0-1.039,0.559-1.52,1.598-1.52h5.122v5.282H259.347z M259.347,438.531v-4h6.719v5.602h-5.122
		C259.983,440.133,259.347,439.652,259.347,438.531z M283.105,426.133h-6.641v-5.282h5.121c1.039,0,1.52,0.563,1.52,1.52V426.133z
		 M276.464,440.133v-5.602h6.641v4c0,1.121-0.559,1.602-1.52,1.602H276.464z" style="fill: rgb(75, 75, 75);"></path>
</g>
</svg>
